HIERARCHY
ROOT Hips
{
  OFFSET -10.0563 7.73376 -472.55
  CHANNELS 6 Xposition Yposition Zposition Zrotation Xrotation Yrotation
  JOINT Spine
  {
    OFFSET 0 0 0
    CHANNELS 3 Zrotation Xrotation Yrotation
    JOINT Spine1
    {
      OFFSET 19 0 0
      CHANNELS 3 Zrotation Xrotation Yrotation
      JOINT Neck
      {
        OFFSET 22.5 0.6 0
        CHANNELS 3 Zrotation Xrotation Yrotation
        JOINT Head
        {
          OFFSET 14 0.0308777 0
          CHANNELS 3 Zrotation Xrotation Yrotation
          End Site
          {
            OFFSET 17 0 0
          }
        }
      }
      JOINT LeftShoulder
      {
        OFFSET 19.8 3.7 4.3
        CHANNELS 3 Zrotation Xrotation Yrotation
        JOINT LeftArm
        {
          OFFSET 8 0 0
          CHANNELS 3 Zrotation Xrotation Yrotation
          JOINT LeftForeArm
          {
            OFFSET 15.2 0 0
            CHANNELS 3 Zrotation Xrotation Yrotation
            JOINT LeftHand
            {
              OFFSET 17.8 0 0
              CHANNELS 3 Zrotation Xrotation Yrotation
              End Site
              {
                OFFSET 7.2 0 0
              }
            }
          }
        }
      }
      JOINT RightShoulder
      {
        OFFSET 19.8 3.7 -4.3
        CHANNELS 3 Zrotation Xrotation Yrotation
        JOINT RightArm
        {
          OFFSET 8 0 0.151654
          CHANNELS 3 Zrotation Xrotation Yrotation
          JOINT RightForeArm
          {
            OFFSET 15.2 0 0
            CHANNELS 3 Zrotation Xrotation Yrotation
            JOINT RightHand
            {
              OFFSET 17.8 0 0
              CHANNELS 3 Zrotation Xrotation Yrotation
              End Site
              {
                OFFSET 7.2 0 0
              }
            }
          }
        }
      }
    }
  }
  JOINT LeftUpLeg
  {
    OFFSET 5.98425 -7.666 4.78879
    CHANNELS 3 Zrotation Xrotation Yrotation
    JOINT LeftLeg
    {
      OFFSET 16 0 0
      CHANNELS 3 Zrotation Xrotation Yrotation
      JOINT LeftFoot
      {
        OFFSET 18 0 0
        CHANNELS 3 Zrotation Xrotation Yrotation
        End Site
        {
          OFFSET 0 -10.8 0
        }
      }
    }
  }
  JOINT RightUpLeg
  {
    OFFSET 5.98425 -7.66598 -4.78879
    CHANNELS 3 Zrotation Xrotation Yrotation
    JOINT RightLeg
    {
      OFFSET 16 0 0
      CHANNELS 3 Zrotation Xrotation Yrotation
      JOINT RightFoot
      {
        OFFSET 18 0 0
        CHANNELS 3 Zrotation Xrotation Yrotation
        End Site
        {
          OFFSET 0 -10.8 0
        }
      }
    }
  }
  JOINT Tail
  {
    OFFSET 6.83696 -0.722574 0
    CHANNELS 3 Zrotation Xrotation Yrotation
    JOINT Tail1
    {
      OFFSET 12 0 0
      CHANNELS 3 Zrotation Xrotation Yrotation
      End Site
      {
        OFFSET 12 0 0
      }
    }
  }
}
MOTION
Frames:	17
Frame Time:	0.0166667
54.9369 10.73 78.3145 -84.9637 -47.2857 35.81 -135.338 14.3435 16.3343 -6.48288 7.12668 -2.15872 13.0995 13.2987 -8.08691 117.5 76.3612 -91.1991 -109.671 -36.7424 -135.909 78.5099 -44.4931 -169.475 -68.0098 9.44069 4.35012 -8.77992 1.95419 -8.64069 75.3088 -30.9578 46.858 6.737 -69.4274 -91.767 -64.4427 -5.91825 -7.98925 -2.28319 0.683382 10.0266 -157.19 -35.346 -54.8192 131.879 7.75339 -5.82168 -20.228 -3.07068 -6.79973 -129.384 -11.3844 11.1755 134.497 -13.4999 -4.37879 1.54304 -2.17755 -2.8514 59.7475 -28.7371 33.2039 9.88681 -16.662 -1.89571 
54.9493 10.6673 78.287 -85.0188 -47.312 35.7845 -135.239 14.4099 16.3421 -6.66441 7.18065 -2.17094 13.2742 13.6322 -8.24954 116.861 75.9138 -90.8305 -109.664 -36.6606 -136.045 78.3516 -44.4027 -169.638 -68.2827 9.52147 4.33137 -8.6153 1.91192 -8.46686 75.4209 -30.8445 46.9909 6.68074 -69.6548 -91.5861 -64.7492 -6.12971 -8.10654 -2.26828 0.750326 9.76306 -156.625 -34.6596 -54.3131 133.205 8.71964 -6.16161 -20.2541 -3.09828 -6.69406 -129.574 -11.5596 11.2612 134.543 -13.7246 -4.39047 1.77273 -2.20245 -2.91101 59.7968 -28.7513 33.1959 9.88884 -16.657 -1.89584 
54.9321 10.6451 78.2594 -85.0021 -47.3534 35.7983 -135.272 14.4218 16.3267 -6.62737 7.18067 -2.07062 13.261 13.9923 -8.61381 116.417 75.4969 -90.6668 -109.65 -36.7065 -135.922 78.3594 -44.5048 -169.559 -68.3336 9.63392 4.26319 -8.56936 1.8756 -8.26757 75.3826 -30.9454 47.0849 6.21704 -69.6613 -91.9917 -64.8461 -6.02036 -8.14026 -2.16734 0.752432 9.80366 -156.304 -35.21 -53.9896 133.409 7.50018 -6.31692 -21.53 -3.04666 -6.78851 -129.663 -11.3298 11.3213 134.535 -13.4538 -4.36917 1.83156 -2.18184 -2.85337 59.8152 -28.741 33.1825 9.8854 -16.6413 -1.92051 
54.9089 10.7088 78.2403 -84.9384 -47.3446 35.8559 -135.207 14.4323 16.3001 -6.68078 7.18365 -2.03117 13.1422 14.303 -8.94562 115.926 75.0996 -90.332 -109.649 -36.7762 -135.786 78.4634 -44.6339 -169.512 -68.1062 9.5922 4.29193 -8.74148 1.90612 -8.34947 75.2919 -31.0715 47.0537 6.29148 -69.5136 -92.2084 -64.6007 -6.04135 -8.0813 -2.34109 0.71005 9.97086 -156.519 -36.7569 -54.3749 131.854 4.90605 -6.04697 -23.5303 -2.94365 -7.01407 -129.513 -10.8953 11.2637 134.438 -12.9882 -4.35136 1.60291 -2.13719 -2.72191 59.7923 -28.7487 33.1757 9.8977 -16.6208 -1.94322 
54.9159 10.715 78.2244 -84.9296 -47.3529 35.8769 -135 14.4512 16.3216 -6.90713 7.17707 -2.10103 13.0329 14.6628 -9.24047 115.818 74.6895 -90.2149 -109.667 -36.8111 -135.769 78.2773 -44.671 -169.748 -68.1495 9.49199 4.36758 -8.77663 1.95124 -8.54229 75.2426 -31.1124 46.9756 7.02207 -69.512 -92.0418 -64.6018 -6.06647 -7.96491 -2.39462 0.681127 10.0341 -156.214 -36.9591 -54.2748 131.498 4.62183 -6.00152 -24.1677 -2.92031 -7.0104 -129.546 -10.9033 11.223 134.426 -12.997 -4.35816 1.73115 -2.13687 -2.71751 59.7747 -28.7547 33.156 9.91779 -16.6269 -1.94331 
54.9099 10.7077 78.2177 -84.9327 -47.4468 35.8736 -134.779 14.4581 16.3634 -7.1565 7.14241 -2.15981 12.9565 15.054 -9.50013 115.553 74.1701 -89.8347 -109.672 -36.851 -135.708 78.017 -44.7326 -169.977 -68.2488 9.56288 4.37948 -8.79137 1.95293 -8.55176 75.2591 -31.065 46.9268 8.24085 -69.5884 -91.5633 -64.6832 -6.26817 -7.78316 -2.52895 0.674484 9.95063 -156.026 -36.8437 -54.1536 131.615 4.9353 -5.99006 -23.9336 -2.92574 -6.99168 -129.611 -11.0478 11.2258 134.529 -13.0652 -4.35999 1.89146 -2.14184 -2.74045 59.7826 -28.7133 33.078 9.92857 -16.637 -1.9326 
54.88 10.7024 78.2093 -84.949 -47.5722 35.8535 -134.596 14.4786 16.3823 -7.36739 7.12358 -2.15501 12.9003 15.3939 -9.7883 115.29 73.6954 -89.4469 -109.667 -36.8789 -135.641 77.8266 -44.8627 -170.131 -68.3452 9.685 4.34584 -8.72367 1.92985 -8.45562 75.3124 -30.9719 46.9016 9.11465 -69.732 -91.1276 -64.7956 -6.44518 -7.68772 -2.65563 0.677801 9.89705 -156.22 -36.8955 -54.1917 131.812 4.76691 -6.04921 -23.7339 -2.9346 -6.99336 -129.512 -11.1611 11.2103 134.585 -13.0849 -4.36668 1.7312 -2.1518 -2.76318 59.857 -28.6553 32.9511 9.92275 -16.61 -1.91989 
54.8714 10.7018 78.2045 -84.9605 -47.5969 35.8578 -134.557 14.4855 16.4081 -7.38142 7.10773 -2.14024 12.7639 15.7666 -10.2367 115.957 73.3917 -89.8576 -109.675 -36.8955 -135.632 77.8021 -44.9356 -170.154 -68.3434 9.71175 4.29022 -8.66504 1.94618 -8.52753 75.2882 -30.9776 46.8311 9.31092 -69.7323 -91.0166 -64.7981 -6.41659 -7.67502 -2.68656 0.66069 9.98626 -156.303 -36.8759 -54.2513 131.864 4.84519 -6.04339 -23.5729 -2.94155 -7.00229 -129.346 -11.1506 11.1291 134.511 -12.9994 -4.3682 1.48014 -2.16143 -2.78415 59.8757 -28.6515 32.889 9.92482 -16.601 -1.90758 
54.8906 10.6977 78.2141 -84.9079 -47.5278 35.9179 -134.706 14.4767 16.5252 -7.23436 7.08245 -2.21689 12.6182 16.162 -10.7325 116.847 73.1049 -90.4344 -109.658 -36.867 -135.64 77.9657 -44.8488 -170.071 -68.1953 9.68682 4.28208 -8.75129 1.97355 -8.63266 75.1614 -31.0925 46.6538 9.16853 -69.5804 -91.0821 -64.6656 -6.40497 -7.67542 -2.68627 0.65529 10.0715 -155.957 -36.6949 -54.0885 131.767 5.42152 -5.95623 -23.4996 -2.94056 -6.99713 -129.378 -11.1288 11.0544 134.467 -12.9418 -4.3642 1.42306 -2.17168 -2.81278 59.7728 -28.6816 32.9117 9.92753 -16.6337 -1.89082 
54.9055 10.7005 78.2315 -84.8932 -47.4404 35.9492 -134.879 14.5144 16.6352 -7.08211 7.11251 -2.28766 12.5735 16.4111 -11.1484 117.154 72.8711 -90.6217 -109.612 -36.8033 -135.637 78.237 -44.757 -169.876 -67.947 9.74115 4.24396 -8.94258 1.96971 -8.57121 75.1362 -31.1346 46.6614 8.9507 -69.4473 -91.1686 -64.5018 -6.43264 -7.71934 -2.72604 0.673242 10.0043 -156.055 -36.6065 -54.1167 131.841 5.48666 -5.96789 -23.3533 -2.94424 -6.98798 -129.592 -11.1432 10.9764 134.555 -13.0018 -4.3592 1.66365 -2.17342 -2.82188 59.6961 -28.7319 32.9916 9.91121 -16.6638 -1.91666 
54.9083 10.7042 78.242 -84.9584 -47.4027 35.8757 -134.991 14.5469 16.7056 -6.92591 7.14531 -2.35022 12.534 16.6369 -11.5267 117.525 72.638 -90.7382 -109.574 -36.7433 -135.647 78.4978 -44.6798 -169.622 -67.7416 9.84561 4.11921 -9.02182 1.94872 -8.43278 75.1982 -31.0991 46.7939 8.3334 -69.3286 -91.4383 -64.3579 -6.34434 -7.80746 -2.71001 0.682473 9.96914 -156.456 -36.6641 -54.3651 132.01 5.21921 -6.03747 -23.2118 -2.95332 -7.00828 -129.609 -11.0631 10.9665 134.57 -12.9716 -4.34985 1.73675 -2.16334 -2.79973 59.7465 -28.7423 33.0789 9.87887 -16.6591 -1.95869 
54.9114 10.6956 78.2491 -84.9956 -47.3596 35.8047 -135.112 14.5611 16.8318 -6.77962 7.15645 -2.51098 12.5548 16.865 -11.9011 117.665 72.3925 -90.8099 -109.541 -36.6677 -135.702 78.8031 -44.622 -169.449 -67.5568 9.84563 4.02032 -8.98703 1.95806 -8.44282 75.1245 -31.175 46.7114 7.15038 -69.1735 -91.9829 -64.1995 -6.24509 -7.93153 -2.6148 0.692461 10.0878 -156.236 -36.5969 -54.3187 131.914 5.60879 -5.98036 -23.2187 -2.95238 -7.02628 -129.493 -11.0123 11.0672 134.436 -13.0238 -4.35745 1.60603 -2.15945 -2.7862 59.8307 -28.7379 33.1576 9.85082 -16.6224 -1.95589 
54.9203 10.6855 78.25 -85.0202 -47.3134 35.77 -135.202 14.6011 16.9386 -6.69393 7.1879 -2.62388 12.6135 16.9546 -12.3059 117.954 72.389 -91.2197 -109.499 -36.57 -135.774 79.1061 -44.5486 -169.283 -67.3533 9.89832 3.94876 -9.08218 1.96374 -8.42711 75.0672 -31.2579 46.7008 6.41042 -69.0954 -92.2913 -64.1196 -6.16977 -8.02333 -2.46273 0.73631 9.99098 -156.216 -36.5094 -54.3448 131.992 5.89028 -5.96242 -23.0356 -2.95742 -7.04184 -129.43 -10.9797 11.2084 134.333 -13.163 -4.37044 1.56108 -2.15055 -2.76154 59.8683 -28.7565 33.2432 9.84726 -16.609 -1.95092 
54.9329 10.6837 78.2467 -85.071 -47.2598 35.7323 -135.21 14.6632 16.9777 -6.69849 7.24977 -2.68054 12.5644 16.9918 -12.6629 118.884 72.5117 -91.9213 -109.459 -36.5164 -135.767 79.2888 -44.5284 -169.146 -67.1823 10.0331 3.8905 -9.28222 1.94365 -8.29228 75.1031 -31.2678 46.8447 6.05604 -69.0978 -92.4612 -64.1105 -6.10094 -8.08807 -2.33665 0.781858 9.78392 -156.364 -36.4389 -54.4125 132.165 5.90032 -5.98872 -22.825 -2.9606 -7.03904 -129.58 -10.9549 11.2828 134.4 -13.2943 -4.37148 1.87115 -2.13674 -2.73447 59.9009 -28.8004 33.3618 9.86027 -16.6098 -1.96221 
54.942 10.6764 78.2391 -85.1498 -47.2403 35.682 -135.138 14.729 17.0576 -6.74392 7.31062 -2.85035 12.4758 17.0575 -12.87 119.283 72.4969 -92.1503 -109.495 -36.5509 -135.799 79.3098 -44.5143 -169.086 -67.159 10.0758 3.85252 -9.33861 1.93643 -8.23047 75.1131 -31.303 46.9564 5.49529 -69.077 -92.8418 -64.1301 -5.95723 -8.16674 -2.23303 0.788848 9.80366 -156.322 -36.3675 -54.367 132.19 5.89141 -5.9734 -22.753 -2.95929 -7.03531 -129.564 -10.7744 11.3409 134.358 -13.1735 -4.35696 1.87414 -2.13024 -2.71951 59.9785 -28.8411 33.4389 9.87131 -16.5938 -1.98289 
54.9358 10.6642 78.2166 -85.2416 -47.3238 35.5726 -134.964 14.757 17.1311 -6.83843 7.32457 -3.048 12.3546 17.0549 -12.9724 119.191 72.4698 -91.9795 -109.556 -36.5962 -135.876 79.2365 -44.4155 -169.071 -67.2505 10.0487 3.84787 -9.29266 1.93868 -8.22398 75.0738 -31.3812 46.9956 4.82531 -69.0396 -93.3783 -64.1632 -5.79115 -8.19184 -2.10565 0.772271 9.96891 -155.707 -36.3516 -54.1285 132 6.49311 -5.88529 -23.0699 -2.94748 -7.04954 -129.466 -10.8035 11.412 134.317 -13.2027 -4.36522 1.85505 -2.12655 -2.72157 60.094 -28.7908 33.4279 9.88209 -16.5771 -2.01005 
54.9233 10.6604 78.1941 -85.3175 -47.3934 35.4769 -134.75 14.7961 17.1453 -7.01812 7.35581 -3.17272 12.2689 17.0371 -13.1335 119.45 72.5269 -92.1174 -109.573 -36.6052 -135.906 79.1282 -44.3613 -169.157 -67.3122 10.0408 3.91229 -9.38347 1.94379 -8.2312 75.0629 -31.4195 47.0431 5.12487 -69.1104 -93.3617 -64.2323 -5.85586 -8.14533 -2.12142 0.779019 9.92192 -155.687 -36.3532 -54.1718 132.017 6.43785 -5.89339 -23.0178 -2.94711 -7.03256 -129.548 -10.9563 11.4149 134.422 -13.3232 -4.37749 2.15653 -2.12513 -2.72183 60.2294 -28.7467 33.4077 9.87688 -16.5385 -1.99455 
